# xmcd
#
# Track frame offsets: 
#        150
#        10847
#        22177
#        34120
#        44617
#        57532
#        68905
#        82055
#        94787
#        105837
#        118172
#        129327
#        140690
#        153192
#
# Disc length: 2186 seconds
#
# Revision: 0
# Processed by: cddbd v1.5.2PL0 Copyright (c) Steve Scherf et al.
# Submitted via: ExactAudioCopy v1.0b1
#
DISCID=be08880e
DTITLE=Various Artist - Rural Blues Vol. 3 (BGO)
DYEAR=1999
DGENRE=Blues
TTITLE0=Papa Lightfoot - Jump The Boogie (mono)
TTITLE1=Papa Lightfoot - Mean Ol' Train (mono)
TTITLE2=Boogie Bill Webb - Boogie (mono)
TTITLE3=Boogie Bill Webb - Bad Dog (mono)
TTITLE4=J.D. Edwards - Playboy Blues (mono)
TTITLE5=J.D. Edwards - Hobo (mono)
TTITLE6=Lowell Fulson - Stormin' And Rainin' (mono)
TTITLE7=Roosevelt Sykes - Hush Oh Hush (mono)
TTITLE8=Roosevelt Sykes - I'm Tired (mono)
TTITLE9=Manny Nichols - No One To Love Me (mono)
TTITLE10=Country Jim - Sad And Lonely (mono)
TTITLE11=Country Jim - Good Lookin' Woman (mono)
TTITLE12=Lil' Son Jackson - Rockin' And Rollin' #2 (mono)
TTITLE13=Lil' Son Jackson - Sad Letter Blues (mono)
EXTD=
EXTT0=
EXTT1=
EXTT2=
EXTT3=
EXTT4=
EXTT5=
EXTT6=
EXTT7=
EXTT8=
EXTT9=
EXTT10=
EXTT11=
EXTT12=
EXTT13=
PLAYORDER=
